# xmcd
#
# Track frame offsets: 
#        150
#        14733
#        30894
#        46156
#        67106
#        84131
#        100891
#        120859
#        139238
#        156256
#        173145
#        191834
#        210788
#
# Disc length: 3148 seconds
#
# Revision: 0
# Processed by: cddbd v1.5.2PL0 Copyright (c) Steve Scherf et al.
# Submitted via: ExactAudioCopyFreeDBPlugin 1.0
#
DISCID=a00c4a0d
DTITLE=Nelson and the Stagecoach - Winners and Loosers
DYEAR=2005
DGENRE=Country
TTITLE0=Crazy
TTITLE1=Wanted Man
TTITLE2=Walk Away
TTITLE3=Rain By The Hillside
TTITLE4=Sleepy Town
TTITLE5=Here She Come
TTITLE6=Heartache City
TTITLE7=Somebody, Somewhere
TTITLE8=Stuck In Mexico
TTITLE9=What My Heart Needs
TTITLE10=X-Road
TTITLE11=Winners and Losers
TTITLE12=Pretend
EXTD=
EXTT0=
EXTT1=
EXTT2=
EXTT3=
EXTT4=
EXTT5=
EXTT6=
EXTT7=
EXTT8=
EXTT9=
EXTT10=
EXTT11=
EXTT12=
PLAYORDER=
